<?xml version="1.0" encoding="UTF-8"?>
<svg id="Layer_1" data-name="Layer 1" xmlns="http://www.w3.org/2000/svg" viewBox="0 0 688 814.32">
  <defs>
    <style>
      .cls-1 {
        fill: #949494;
      }

      .cls-1, .cls-2, .cls-3, .cls-4, .cls-5, .cls-6, .cls-7 {
        stroke-width: 0px;
      }

      .cls-2 {
        fill: #ddd;
      }

      .cls-3 {
        fill: #c9c9c9;
      }

      .cls-4 {
        fill: #d6d6d6;
      }

      .cls-5 {
        fill: silver;
      }

      .cls-6 {
        fill: #686868;
      }

      .cls-7 {
        fill: #f0f0f0;
      }
    </style>
  </defs>
  <g id="Trophy3">
    <g>
      <path class="cls-3" d="m399.4,559.73c-33.81-31.81-25.27-124.94-21.53-154.76.43-3.12.86-6.23,1.29-9.35.61-2.24,1.42-4.98,2.46-8.11h-72.41c-.84,0-1.68-.02-2.51-.06l3.12,8.18s20.24,126.03-20.2,164.11c-39.11,36.87-45.78,24.42-33.1,68.64h175.98c12.66-44.23,5.98-31.77-33.1-68.64Z"/>
      <path class="cls-5" d="m399.4,559.73c-32.79-30.86-25.75-119.4-21.88-151.9-5.43,30.52-18.33,121.53,13.41,154.76,35.71,37.49,43.81,27.64,30.94,65.79h10.64c12.66-44.23,5.98-31.77-33.1-68.64Z"/>
      <path class="cls-7" d="m289.82,559.79c32.79-30.86,25.75-119.4,21.88-151.9,5.43,30.52,18.33,121.53-13.41,154.76-35.71,37.49-43.81,27.64-30.94,65.79h-10.64c-12.66-44.23-5.98-31.77,33.1-68.64Z"/>
    </g>
    <g>
      <path class="cls-6" d="m157.98,769.77h366.4c17.3,0,31.34,14.04,31.34,31.34v7.6c0,3.09-2.51,5.6-5.6,5.6H132.24c-3.09,0-5.6-2.51-5.6-5.6v-7.6c0-17.3,14.04-31.34,31.34-31.34Z"/>
      <path class="cls-1" d="m193.38,616.04h301.24c13.22,0,23.95,10.73,23.95,23.95v129.78H169.44v-129.78c0-13.22,10.73-23.95,23.95-23.95Z"/>
    </g>
    <g>
      <path class="cls-4" d="m630.38,42.23c-18.53-4.16-36.64,1.81-36.64,1.81-9.53,3.21-15.86,7.57-17.48,8.73-.06,1.01,0,45.74-.02,46.76,100.29-55.24,95.82,119.78-57.74,177.65-9.15,15.35-18.31,30.71-27.46,46.06,25.38,56.03,70.28,29.86,62.33,9.65-1.32-3.36-4.04-5.97-7.34-7.43-7.43-3.29-10.86-6.46-11.19-9.78-1.26-12.97,100.77-52.16,138.78-132.54,4.78-10.1,24.77-52.37,7.44-93.05-2.5-5.88-18.06-40.53-50.68-47.86Z"/>
      <path class="cls-4" d="m57.62,42.23c18.53-4.16,36.64,1.81,36.64,1.81,9.53,3.21,15.86,7.57,17.48,8.73.06,1.01,0,45.74.02,46.76C11.48,44.3,15.95,219.32,169.51,277.19c9.15,15.35,18.31,30.71,27.46,46.06-25.38,56.03-70.28,29.86-62.33,9.65,1.32-3.36,4.04-5.97,7.34-7.43,7.43-3.29,10.86-6.46,11.19-9.78,1.26-12.97-100.77-52.16-138.78-132.54-4.78-10.1-24.77-52.37-7.44-93.05,2.5-5.88,18.06-40.53,50.68-47.86Z"/>
    </g>
    <g>
      <path class="cls-5" d="m292.87,398.99c-.07.92-.12,1.85-.12,2.79,0,23.17,22.94,41.95,51.24,41.95s51.24-18.78,51.24-41.95c0-.94-.04-1.86-.12-2.79-16.49,5.7-33.59,8.7-51.13,8.7s-34.64-3-51.13-8.7Z"/>
      <path class="cls-7" d="m300.3,413.16c-1.24-3.62-1.91-7.43-1.91-11.38,0-.33.01-.66.02-.99-1.85-.57-3.7-1.16-5.54-1.8-.07.92-.12,1.85-.12,2.79,0,13.77,8.11,25.98,20.62,33.63-6.15-6.38-10.51-13.79-13.08-22.26Z"/>
    </g>
    <g>
      <path class="cls-2" d="m99.05,9.08c0,.07,0,.14,0,.21,0,220.03,109.67,398.4,244.95,398.4S588.95,229.32,588.95,9.29c0-.07,0-.14,0-.21H99.05Z"/>
      <g>
        <path class="cls-5" d="m448.18,351.38c-17.06,19.82-36.57,35-55.06,48.29,0,0,0,0,0,0,104.98-34.76,185.55-178.72,194.92-355.79h-28.47c-.45,60.99-31.42,214.58-111.39,307.49Z"/>
        <path class="cls-5" d="m99.37,29.84c.15,4.7.35,9.37.59,14.02.27,0,.53,0,.8.02h458.8c.29-4.66.52-9.34.71-14.04H99.37Z"/>
        <path class="cls-1" d="m588.35,37.27c.01-.24.02-.48.03-.72.09-2.23.18-4.46.25-6.71h-28.36c-.19,4.7-.43,9.38-.71,14.04h28.48c.12-2.2.22-4.4.32-6.61Z"/>
      </g>
      <path class="cls-7" d="m239.59,351.42c17.06,19.82,36.57,35,55.06,48.29,0,0,0,0,0,0C189.67,364.95,103.55,212.29,99.17,29.28l28.47.56c-.44,91.22,31.99,228.66,111.95,321.57Z"/>
      <rect class="cls-2" x="84.41" width="519.19" height="29.84" rx="12.38" ry="12.38"/>
    </g>
    <g>
      <rect class="cls-2" x="249.96" y="652.33" width="188.08" height="86.23" rx="6.76" ry="6.76"/>
      <path class="cls-6" d="m434.94,649.27h-181.89c-3.72,0-6.76,3.04-6.76,6.76v78.84c0,3.72,3.04,6.76,6.76,6.76h181.89c3.72,0,6.76-3.04,6.76-6.76v-78.84c0-3.72-3.04-6.76-6.76-6.76Zm3.1,82.53c0,3.72-3.04,6.76-6.76,6.76h-174.56c-3.72,0-6.76-3.04-6.76-6.76v-72.71c0-3.72,3.04-6.76,6.76-6.76h174.56c3.72,0,6.76,3.04,6.76,6.76v72.71Z"/>
      <path class="cls-7" d="m376.34,652.33h-62.45l-63.93,63.93v15.54c0,3.72,3.04,6.76,6.76,6.76h49.8l78.03-78.03-8.2-8.2Z"/>
      <path class="cls-7" d="m438.04,731.8v-50.45l-57.21,57.21h50.45c3.72,0,6.76-3.04,6.76-6.76Z"/>
    </g>
  </g>
</svg>